<svg version="1.1" id="Layer_1" xmlns="http://www.w3.org/2000/svg" xmlns:xlink="http://www.w3.org/1999/xlink" x="0px" y="0px"
	 width="100%" viewBox="0 0 500 500" enable-background="new 0 0 500 500" xml:space="preserve">
<path fill="#1B1A18" opacity="1.000000" stroke="none" 
	d="
M97.220993,260.749268 
	C85.107513,240.145737 89.837563,215.254654 107.909836,203.123367 
	C122.094276,193.601822 143.664169,194.363678 157.141022,204.859558 
	C158.429672,205.863159 159.729980,206.851776 161.738571,208.396072 
	C161.738571,204.979187 161.738571,202.272781 161.738571,199.302734 
	C167.876419,199.302734 173.449127,199.302734 179.327515,199.302734 
	C179.327515,233.545975 179.327515,267.631805 179.327515,302.050476 
	C173.649765,302.050476 168.050400,302.050476 161.836456,302.050476 
	C161.836456,291.158569 161.836456,280.119141 161.836456,267.880432 
	C148.213303,278.193207 133.965927,281.061279 118.666130,276.727753 
	C109.780045,274.210815 102.527840,268.954407 97.220993,260.749268 
M127.545067,262.362976 
	C139.941940,265.307343 150.513763,261.413574 159.850052,253.452682 
	C160.991608,252.479279 161.614227,250.342682 161.653229,248.725266 
	C161.837738,241.071915 161.867905,233.407639 161.635529,225.756912 
	C161.582947,224.026108 160.716843,221.812576 159.451019,220.710251 
	C152.424744,214.591400 144.253677,211.425369 134.770340,211.796234 
	C121.080948,212.331589 110.861061,220.671280 109.035904,233.035828 
	C106.990082,246.895157 113.344521,257.343170 127.545067,262.362976 
z"/>
<path fill="#191816" opacity="1.000000" stroke="none" 
	d="
M186.746231,285.982483 
	C186.746231,256.860870 186.746231,228.236145 186.746231,199.326660 
	C192.516235,199.326660 197.938782,199.326660 203.967407,199.326660 
	C203.967407,202.006058 203.967407,204.697220 203.967407,208.822647 
	C217.089355,196.973907 231.308716,194.198502 246.908981,198.176773 
	C255.219742,200.296112 262.171783,204.737534 267.388641,211.616455 
	C278.529236,226.306366 277.990265,250.322617 266.287689,264.223145 
	C252.058975,281.124390 231.756424,282.752655 204.761215,268.813263 
	C204.761215,279.918976 204.761215,290.758667 204.761215,301.986145 
	C198.496140,301.986145 192.797287,301.986145 186.746231,301.986145 
	C186.746231,296.746307 186.746231,291.612823 186.746231,285.982483 
M204.345627,241.446442 
	C204.356308,244.108719 204.203094,246.786057 204.446014,249.426971 
	C204.569702,250.771729 205.034500,252.483337 205.977325,253.292267 
	C214.388901,260.509430 223.922974,264.502167 235.285873,263.050171 
	C253.859238,260.676849 263.743713,239.214600 253.462631,223.480713 
	C245.020340,210.560898 225.187515,207.860077 210.694275,217.420746 
	C206.190506,220.391724 203.343475,223.625931 204.244263,229.494934 
	C204.793198,233.071487 204.345596,236.800995 204.345627,241.446442 
z"/>
<path fill="#1A1918" opacity="1.000000" stroke="none" 
	d="
M21.381340,275.784027 
	C5.407842,269.225098 3.228776,253.873322 9.849977,244.279190 
	C13.065686,239.619614 18.318487,235.796310 23.450338,233.145798 
	C34.553089,227.411407 46.969635,226.284500 59.239098,225.060974 
	C62.698406,224.716003 66.169098,224.485107 69.595924,224.205048 
	C70.682381,217.414108 69.035057,213.460815 62.763596,212.654922 
	C54.824455,211.634735 46.651241,212.076141 38.607265,212.467911 
	C36.412670,212.574768 33.115814,214.288162 32.400429,216.088882 
	C30.035280,222.042236 25.349272,220.943344 20.867689,220.969421 
	C17.717794,220.987747 14.567708,220.972961 11.035839,220.972961 
	C12.998643,211.477570 18.047148,204.735825 26.502213,201.125687 
	C41.894226,194.553665 57.719379,194.864548 73.315941,200.201294 
	C83.227287,203.592728 87.883949,211.396561 87.985107,221.781204 
	C88.095451,233.109329 88.011810,244.439346 88.012413,255.768539 
	C88.012756,262.236237 88.012466,268.703949 88.012466,275.575623 
	C83.052177,275.575623 77.190529,275.575623 71.270485,275.575623 
	C70.844009,273.491364 70.413368,271.386780 69.850616,268.636536 
	C54.598640,276.994965 38.926865,281.943146 21.381340,275.784027 
M40.471523,264.818176 
	C50.137375,264.295319 59.046837,261.298706 67.296066,256.356812 
	C68.509155,255.630112 69.936218,254.082642 70.010925,252.839600 
	C70.317398,247.740524 70.138954,242.612305 70.138954,236.387543 
	C59.704880,238.254105 49.901367,239.725418 40.249298,241.876297 
	C36.493877,242.713181 32.328674,244.345245 29.741734,246.980942 
	C27.565224,249.198471 26.549675,253.402588 26.575670,256.715088 
	C26.606464,260.638916 29.790188,263.136078 33.692642,264.048889 
	C35.618053,264.499298 37.631138,264.574921 40.471523,264.818176 
z"/>
<path fill="#1A1918" opacity="1.000000" stroke="none" 
	d="
M342.643860,269.385559 
	C328.108521,256.499756 326.522644,240.481781 331.199768,223.444412 
	C335.430908,208.031616 348.715729,198.505905 365.727478,196.915390 
	C377.646545,195.800995 389.026611,197.046921 399.156403,203.946152 
	C412.970886,213.354980 418.718597,231.667191 413.963013,250.384491 
	C410.115631,265.527252 397.446960,276.045013 380.896790,277.975677 
	C367.254700,279.567139 354.346344,278.003601 342.643860,269.385559 
M371.557465,263.288147 
	C376.074615,262.393158 380.983398,262.336731 385.034943,260.444672 
	C396.806549,254.947388 401.234741,236.604309 394.446198,223.658615 
	C388.572815,212.458176 371.713379,208.054855 359.366791,214.496613 
	C349.121552,219.842026 344.998840,230.969803 347.976105,245.241562 
	C350.252472,256.153717 358.172943,262.436005 371.557465,263.288147 
z"/>
<path fill="#1B1A18" opacity="1.000000" stroke="none" 
	d="
M467.292755,228.330414 
	C464.983154,231.186615 462.897980,233.764923 460.548584,236.669952 
	C467.066620,244.509277 473.512878,252.262222 480.177551,260.277863 
	C476.509125,264.567932 472.973816,268.702362 468.902222,273.463928 
	C462.445984,265.514496 456.123291,257.729462 449.385162,249.432938 
	C443.172852,257.214325 436.994354,264.705719 431.129944,272.435455 
	C429.121490,275.082733 427.054230,276.214935 423.714325,276.040649 
	C418.248230,275.755341 412.756348,275.963440 405.952484,275.963440 
	C417.174103,262.455536 427.789764,249.677063 438.679688,236.568420 
	C428.356354,224.236755 418.175659,212.075531 407.276581,199.056137 
	C414.901428,199.056137 421.478394,198.835663 428.020294,199.216919 
	C429.583099,199.308014 431.311127,201.176865 432.480652,202.619308 
	C438.126862,209.583237 443.608246,216.680817 449.376160,224.021194 
	C455.000946,216.882675 460.513519,210.066864 465.805176,203.083633 
	C467.966797,200.231003 470.213959,198.650726 474.074646,198.943924 
	C479.480530,199.354477 484.940918,199.047531 491.673462,199.047531 
	C483.136719,209.297760 475.326965,218.675125 467.292755,228.330414 
z"/>
<path fill="#1C1B19" opacity="1.000000" stroke="none" 
	d="
M331.861328,214.382370 
	C331.154785,215.044083 330.486237,215.475739 329.840881,215.443481 
	C326.196655,215.261261 322.550262,214.670013 318.918823,214.764694 
	C304.847626,215.131653 298.350586,221.755478 298.170410,235.912506 
	C298.005157,248.898483 298.046844,261.887085 297.988403,274.874481 
	C297.987762,275.020813 297.867218,275.166626 297.657440,275.641113 
	C292.099792,275.641113 286.392731,275.641113 280.418030,275.641113 
	C280.418030,250.190201 280.418030,224.949615 280.418030,199.376740 
	C286.268250,199.376740 291.988617,199.376740 297.936066,199.376740 
	C298.091888,202.400299 298.242218,205.317169 298.473022,209.796402 
	C307.604004,198.573624 318.629639,195.343292 331.910065,196.814117 
	C331.910065,202.721619 331.910065,208.329849 331.861328,214.382370 
z"/>
<path fill="#A95550" opacity="1.000000" stroke="none" 
	d="
M486.505981,267.446930 
	C488.755188,270.121307 490.782135,272.515289 493.407410,275.615967 
	C485.695831,275.615967 478.789917,275.615967 471.037323,275.615967 
	C474.865936,271.180786 478.354645,267.139374 482.317749,262.548431 
	C483.814423,264.291229 485.049072,265.728882 486.505981,267.446930 
M488.569489,272.286407 
	C486.586304,270.133698 484.603119,267.981018 482.228516,265.403473 
	C479.756348,268.697998 477.793884,271.313263 475.065338,274.949432 
	C480.082947,274.949432 483.629883,275.038696 487.163452,274.861328 
	C487.750702,274.831848 488.279572,273.639832 488.569489,272.286407 
z"/>
<path fill="#FCFCFB" opacity="1.000000" stroke="none" 
	d="
M127.143661,262.255859 
	C113.344521,257.343170 106.990082,246.895157 109.035904,233.035828 
	C110.861061,220.671280 121.080948,212.331589 134.770340,211.796234 
	C144.253677,211.425369 152.424744,214.591400 159.451019,220.710251 
	C160.716843,221.812576 161.582947,224.026108 161.635529,225.756912 
	C161.867905,233.407639 161.837738,241.071915 161.653229,248.725266 
	C161.614227,250.342682 160.991608,252.479279 159.850052,253.452682 
	C150.513763,261.413574 139.941940,265.307343 127.143661,262.255859 
z"/>
<path fill="#FCFCFB" opacity="1.000000" stroke="none" 
	d="
M204.345627,240.954117 
	C204.345596,236.800995 204.793198,233.071487 204.244263,229.494934 
	C203.343475,223.625931 206.190506,220.391724 210.694275,217.420746 
	C225.187515,207.860077 245.020340,210.560898 253.462631,223.480713 
	C263.743713,239.214600 253.859238,260.676849 235.285873,263.050171 
	C223.922974,264.502167 214.388901,260.509430 205.977325,253.292267 
	C205.034500,252.483337 204.569702,250.771729 204.446014,249.426971 
	C204.203094,246.786057 204.356308,244.108719 204.345627,240.954117 
z"/>
<path fill="#FAFAF9" opacity="1.000000" stroke="none" 
	d="
M40.038040,264.819153 
	C37.631138,264.574921 35.618053,264.499298 33.692642,264.048889 
	C29.790188,263.136078 26.606464,260.638916 26.575670,256.715088 
	C26.549675,253.402588 27.565224,249.198471 29.741734,246.980942 
	C32.328674,244.345245 36.493877,242.713181 40.249298,241.876297 
	C49.901367,239.725418 59.704880,238.254105 70.138954,236.387543 
	C70.138954,242.612305 70.317398,247.740524 70.010925,252.839600 
	C69.936218,254.082642 68.509155,255.630112 67.296066,256.356812 
	C59.046837,261.298706 50.137375,264.295319 40.038040,264.819153 
z"/>
<path fill="#FCFCFC" opacity="1.000000" stroke="none" 
	d="
M371.098206,263.252625 
	C358.172943,262.436005 350.252472,256.153717 347.976105,245.241562 
	C344.998840,230.969803 349.121552,219.842026 359.366791,214.496613 
	C371.713379,208.054855 388.572815,212.458176 394.446198,223.658615 
	C401.234741,236.604309 396.806549,254.947388 385.034943,260.444672 
	C380.983398,262.336731 376.074615,262.393158 371.098206,263.252625 
z"/>
<path fill="#BD3832" opacity="1.000000" stroke="none" 
	d="
M488.702454,272.635712 
	C488.279572,273.639832 487.750702,274.831848 487.163452,274.861328 
	C483.629883,275.038696 480.082947,274.949432 475.065338,274.949432 
	C477.793884,271.313263 479.756348,268.697998 482.228516,265.403473 
	C484.603119,267.981018 486.586304,270.133698 488.702454,272.635712 
z"/>
</svg>